# xmcd
#
# Track frame offsets: 
#        150
#        3273
#        12121
#        26039
#        31271
#        39772
#        44781
#        56180
#        68611
#        76293
#        90979
#        95422
#        110302
#        111427
#        125209
#        135086
#        147863
#
# Disc length: 2298 seconds
#
# Revision: 0
# Processed by: cddbd v1.5.1PL0 Copyright (c) Steve Scherf et al.
# Submitted via: ExactAudioCopy v0.95a5
#
DISCID=d508f811
DTITLE=Mr Oizo - Moustache (Half A Scissor)
DYEAR=2005
DGENRE=Electronic
TTITLE0=Intro
TTITLE1=The End
TTITLE2=Latex
TTITLE3=Vagiclean 2
TTITLE4=Straw Anxious
TTITLE5=(e)
TTITLE6=Nurse Bob
TTITLE7=Berleef
TTITLE8=Scum Hotel
TTITLE9=Drop Urge Need Elle
TTITLE10=(ee)
TTITLE11=Stunt
TTITLE12=Moustache
TTITLE13=Half A Scissor
TTITLE14=1$44
TTITLE15=Square Surf
TTITLE16=Vagiclean
EXTD=
EXTT0=
EXTT1=
EXTT2=
EXTT3=
EXTT4=
EXTT5=
EXTT6=
EXTT7=
EXTT8=
EXTT9=
EXTT10=
EXTT11=
EXTT12=
EXTT13=
EXTT14=
EXTT15=
EXTT16=
PLAYORDER=
